<svg xmlns="http://www.w3.org/2000/svg" width="800" height="450" viewBox="0 0 800 450">
  <rect width="800" height="450" fill="#1a2332"/>
  <circle cx="650" cy="80" r="40" fill="#f0c040" opacity="0.8"/>
  <rect x="100" y="300" width="600" height="150" rx="8" fill="#2d4a1e"/>
  <g fill="#3a7a20">
    <rect x="160" y="200" width="12" height="100" rx="4"/>
    <ellipse cx="166" cy="190" rx="20" ry="16"/>
    <rect x="300" y="220" width="12" height="80" rx="4"/>
    <ellipse cx="306" cy="210" rx="18" ry="14"/>
    <rect x="440" y="180" width="12" height="120" rx="4"/>
    <ellipse cx="446" cy="170" rx="22" ry="18"/>
    <rect x="580" y="230" width="12" height="70" rx="4"/>
    <ellipse cx="586" cy="220" rx="16" ry="12"/>
  </g>
  <g fill="#e04040">
    <circle cx="155" cy="185" r="5"/>
    <circle cx="175" cy="192" r="4"/>
    <circle cx="435" cy="165" r="5"/>
    <circle cx="455" cy="172" r="4"/>
  </g>
  <text x="400" y="380" text-anchor="middle" font-family="sans-serif" font-size="20" fill="#8ab870" opacity="0.7">Automated Garden</text>
</svg>
