<svg xmlns="http://www.w3.org/2000/svg" width="1200" height="630" viewBox="0 0 1200 630" role="img" aria-label="The Digital Services Act and Trusted Flaggers">
  <defs>
    <radialGradient id="glow" cx="50%" cy="42%" r="65%">
      <stop offset="0%" stop-color="#12233c"/>
      <stop offset="100%" stop-color="#0a121d"/>
    </radialGradient>
    <path id="star" d="M0,-14 L3.29,-4.53 L13.31,-4.33 L5.33,1.73 L8.23,11.33 L0,5.6 L-8.23,11.33 L-5.33,1.73 L-13.31,-4.33 L-3.29,-4.53 Z"/>
  </defs>
  <rect fill="url(#glow)" width="1200" height="630"/>
  <circle cx="600" cy="258" r="200" fill="none" stroke="#1e3a5f" stroke-width="1.5" opacity="0.6"/>
  <circle cx="600" cy="258" r="112" fill="#0e1a2b" stroke="#1e3a5f" stroke-width="1.5"/>
  <g fill="#ffcc00">
    <use href="#star" x="600" y="103"/>
    <use href="#star" x="677.5" y="123.8"/>
    <use href="#star" x="734.2" y="180.5"/>
    <use href="#star" x="755" y="258"/>
    <use href="#star" x="734.2" y="335.5"/>
    <use href="#star" x="677.5" y="392.2"/>
    <use href="#star" x="600" y="413"/>
    <use href="#star" x="522.5" y="392.2"/>
    <use href="#star" x="465.8" y="335.5"/>
    <use href="#star" x="445" y="258"/>
    <use href="#star" x="465.8" y="180.5"/>
    <use href="#star" x="522.5" y="123.8"/>
  </g>
  <g>
    <rect x="571" y="196" width="6" height="128" rx="3" fill="#8aa0b8"/>
    <path d="M577 200 h72 q12 4 12 27 t-12 27 h-72 z" fill="#2563eb"/>
    <path d="M596 226 l11 11 l20 -22" fill="none" stroke="#e2e8f0" stroke-width="6" stroke-linecap="round" stroke-linejoin="round"/>
  </g>
  <text x="600" y="512" text-anchor="middle" fill="#e2e8f0" font-family="sans-serif" font-size="46" font-weight="700">The DSA &amp; Trusted Flaggers</text>
  <text x="600" y="560" text-anchor="middle" fill="#8aa0b8" font-family="sans-serif" font-size="24">EU power expansion, NGO subsidies &amp; the difficulty of stopping new rules</text>
</svg>
